<?xml version="1.0" encoding="utf-8"?>
<svg xmlns="http://www.w3.org/2000/svg" style="margin: auto; background: none; display: block; shape-rendering: auto;" width="274" height="127" preserveAspectRatio="xMidYMid">
<style type="text/css">
  text {
    text-anchor: middle; font-size: 68px; opacity: 0;
  }
</style>
<g style="transform-origin: 137px 63.5px; transform: scale(1.94286);">
<g transform="translate(137,63.5)">
  <g transform="translate(0,0)"><g class="path" style="opacity: 1; transform-origin: -49.185px -2.97418px; animation: 1.49254s linear -0.895522s infinite normal forwards running fade-13a5067a-f78a-4ebc-b729-a116a4ef3b69;"><path d="M10.78-0.04L10.78-0.04L8.79-0.07L8.79-0.07Q8.37-0.07 7.95-0.07L7.95-0.07L1.58 0.25L1.58 0.25Q1.05 0.25 1.05-0.11L1.05-0.11L1.05-0.11Q1.05-0.21 1.16-0.60L1.16-0.60L1.16-0.60Q1.51-1.40 1.66-5.71L1.66-5.71L1.66-5.71Q1.82-10.01 1.82-13.56L1.82-13.56L1.82-13.56Q1.82-17.12 1.68-19.32L1.68-19.32L1.68-19.32Q1.47-22.65 0.98-23.31L0.98-23.31L0.98-23.31Q0.60-23.80 0.60-23.94L0.60-23.94L0.60-23.94Q0.60-24.50 2.49-24.92L2.49-24.92L2.49-24.92Q4.38-25.34 5.20-25.34L5.20-25.34L5.20-25.34Q6.02-25.34 6.23-25.25L6.23-25.25L6.23-25.25Q6.44-25.17 6.44-24.89L6.44-24.89L6.44-24.89Q6.44-24.61 6.30-23.10L6.30-23.10L6.30-23.10Q5.95-18.66 5.95-12.76L5.95-12.76L5.95-12.76Q5.95-6.86 6.23-3.33L6.23-3.33L6.23-3.33Q6.23-2.94 6.90-2.66L6.90-2.66L6.90-2.66Q7.56-2.38 8.54-2.38L8.54-2.38L8.54-2.38Q11.97-2.38 11.97-7.67L11.97-7.67L11.97-7.67Q11.97-9.14 11.81-9.49L11.81-9.49L11.81-9.49Q11.66-9.84 11.66-9.94L11.66-9.94L11.66-9.94Q11.66-10.29 12.15-10.29L12.15-10.29L12.15-10.29Q12.53-10.29 13.18-9.91L13.18-9.91L13.18-9.91Q13.83-9.52 14.25-8.94L14.25-8.94L14.25-8.94Q14.67-8.37 15.02-7.12L15.02-7.12L15.02-7.12Q15.37-5.88 15.37-4.20L15.37-4.20L15.37-4.20Q15.37-0.04 14.35-0.04L14.35-0.04L14.35-0.04Q12.57-0.04 10.78-0.04" fill="#2e186a" stroke="none" stroke-width="none" transform="translate(-57.170013427734375,9.570816705877135)" style="fill: rgb(46, 24, 106);"></path></g><g class="path" style="opacity: 1; transform-origin: -34.12px 2.01082px; animation: 1.49254s linear -0.80597s infinite normal forwards running fade-13a5067a-f78a-4ebc-b729-a116a4ef3b69;"><path d="M20.09-13.20L20.09-13.20L20.09-13.20Q19.18-13.16 18.78-13.14L18.78-13.14L18.78-13.14Q18.38-13.13 18.38-13.34L18.38-13.34L18.38-13.34Q18.38-13.55 18.59-13.76L18.59-13.76L18.59-13.76Q20.83-15.82 26.15-15.82L26.15-15.82L26.15-15.82Q27.97-15.82 29.02-15.51L29.02-15.51L29.37-15.40L29.37-15.40Q29.79-15.23 29.79-15.02L29.79-15.02L29.79-15.02Q29.79-14.84 29.54-14.74L29.54-14.74L29.54-14.74Q28.60-14.46 27.72-13.84L27.72-13.84L27.72-13.84Q26.85-13.23 26.85-12.99L26.85-12.99L27.05-12.74L27.05-12.74Q28.18-12.11 28.79-10.75L28.79-10.75L28.79-10.75Q29.40-9.38 29.47-8.33L29.47-8.33L29.54-7.25L29.54-7.25Q29.54-3.78 27.62-1.54L27.62-1.54L27.62-1.54Q25.69 0.70 22.37 0.70L22.37 0.70L22.37 0.70Q20.69 0.70 19.46 0.11L19.46 0.11L19.46 0.11Q18.24-0.49 17.66-1.24L17.66-1.24L17.66-1.24Q17.08-2.00 16.73-2.94L16.73-2.94L16.73-2.94Q16.31-4.24 16.31-5.62L16.31-5.62L16.31-5.62Q16.31-7.00 16.78-8.40L16.78-8.40L16.78-8.40Q17.26-9.80 17.87-10.47L17.87-10.47L17.87-10.47Q18.48-11.13 19.25-11.55L19.25-11.55L19.25-11.55Q20.23-12.08 20.83-12.08L20.83-12.08L20.83-12.08Q21.42-12.08 21.42-11.83L21.42-11.83L21.21-11.48L21.21-11.48Q20.44-10.57 20.11-9.10L20.11-9.10L20.11-9.10Q19.78-7.63 19.78-6.49L19.78-6.49L19.78-6.49Q19.78-5.36 20.05-4.24L20.05-4.24L20.05-4.24Q20.34-3.12 20.69-2.57L20.69-2.57L20.69-2.57Q21.04-2.03 21.49-1.75L21.49-1.75L21.49-1.75Q22.16-1.33 22.89-1.33L22.89-1.33L22.89-1.33Q23.63-1.33 24.33-1.91L24.33-1.91L24.33-1.91Q25.03-2.49 25.34-3.43L25.34-3.43L25.34-3.43Q25.97-5.18 25.97-7.04L25.97-7.04L25.97-7.04Q25.97-9.98 24.48-11.59L24.48-11.59L24.48-11.59Q23.00-13.20 20.09-13.20" fill="#2e186a" stroke="none" stroke-width="none" transform="translate(-57.170013427734375,9.570816705877135)" style="fill: rgb(46, 24, 106);"></path></g><g class="path" style="opacity: 1; transform-origin: -19.75px 1.89082px; animation: 1.49254s linear -0.716418s infinite normal forwards running fade-13a5067a-f78a-4ebc-b729-a116a4ef3b69;"><path d="M43.05-10.50L43.05-10.50L42.98-6.02L42.98-6.02Q42.98-1.37 44.00-0.42L44.00-0.42L44.00-0.42Q44.14-0.28 44.14-0.11L44.14-0.11L44.14-0.11Q44.14 0.42 41.88 0.42L41.88 0.42L41.88 0.42Q39.62 0.42 39.48-0.91L39.48-0.91L39.48-0.91Q39.45-1.23 39.45-2.21L39.45-2.21L39.59-7.81L39.59-7.81Q39.59-8.05 39.31-8.05L39.31-8.05L39.31-8.05Q37.63-8.05 36.16-7.11L36.16-7.11L36.16-7.11Q34.69-6.16 34.69-4.69L34.69-4.69L34.69-4.69Q34.69-3.92 35.11-3.40L35.11-3.40L35.11-3.40Q35.53-2.87 36.14-2.87L36.14-2.87L36.14-2.87Q36.75-2.87 37.15-3.12L37.15-3.12L37.15-3.12Q37.56-3.36 37.63-3.40L37.63-3.40L37.63-3.40Q38.22-3.33 38.22-2.15L38.22-2.15L38.22-2.15Q38.22-0.98 37.14-0.26L37.14-0.26L37.14-0.26Q36.05 0.46 34.86 0.46L34.86 0.46L34.86 0.46Q33.67 0.46 32.81 0.04L32.81 0.04L32.81 0.04Q31.96-0.39 31.57-0.91L31.57-0.91L31.57-0.91Q31.19-1.44 30.94-2.10L30.94-2.10L30.94-2.10Q30.70-2.91 30.70-3.50L30.70-3.50L30.70-3.50Q30.70-5.95 32.23-7.42L32.23-7.42L32.23-7.42Q33.78-8.89 36.19-9.52L36.19-9.52L36.19-9.52Q39.38-10.15 39.52-10.68L39.52-10.68L39.52-10.68Q39.62-11.06 39.62-11.97L39.62-11.97L39.62-11.97Q39.62-13.83 37.73-13.83L37.73-13.83L37.73-13.83Q36.93-13.83 36.30-13.32L36.30-13.32L36.30-13.32Q35.67-12.81 35.67-12.04L35.67-12.04L35.88-11.20L35.88-11.20Q35.80-10.61 34.62-10.50L34.62-10.50L34.23-10.47L34.23-10.47Q33.18-10.47 32.57-10.99L32.57-10.99L32.57-10.99Q31.96-11.52 31.96-12.39L31.96-12.39L31.96-12.39Q31.96-12.95 32.32-13.63L32.32-13.63L32.32-13.63Q32.69-14.32 33.25-14.74L33.25-14.74L33.25-14.74Q33.81-15.16 34.98-15.49L34.98-15.49L34.98-15.49Q36.16-15.82 37.24-15.82L37.24-15.82L37.24-15.82Q38.33-15.82 38.92-15.75L38.92-15.75L38.92-15.75Q39.52-15.68 40.55-15.42L40.55-15.42L40.55-15.42Q41.58-15.16 42.26-14.42L42.26-14.42L42.26-14.42Q42.95-13.69 43.00-12.86L43.00-12.86L43.00-12.86Q43.05-12.04 43.05-10.50" fill="#2e186a" stroke="none" stroke-width="none" transform="translate(-57.170013427734375,9.570816705877135)" style="fill: rgb(46, 24, 106);"></path></g><g class="path" style="opacity: 1; transform-origin: -5.65001px -2.38418px; animation: 1.49254s linear -0.626866s infinite normal forwards running fade-13a5067a-f78a-4ebc-b729-a116a4ef3b69;"><path d="M52.19-15.72L52.19-15.72L52.19-15.72Q52.82-15.72 53.32-15.56L53.32-15.56L53.32-15.56Q53.83-15.40 53.87-15.40L53.87-15.40L54.08-15.58L53.94-19.39L53.94-19.39Q53.87-20.37 53.52-21.07L53.52-21.07L53.52-21.07Q53.17-21.77 52.89-21.98L52.89-21.98L52.57-22.16L52.57-22.16Q52.36-22.30 52.36-22.47L52.36-22.47L52.36-22.47Q52.36-23.00 53.99-23.70L53.99-23.70L53.99-23.70Q55.62-24.40 56.53-24.40L56.53-24.40L56.53-24.40Q57.44-24.40 57.51-24.01L57.51-24.01L57.51-24.01Q57.68-22.82 57.68-19.48L57.68-19.48L57.68-19.48Q57.68-16.14 57.52-12.92L57.52-12.92L57.52-12.92Q57.37-9.70 57.37-5.62L57.37-5.62L57.37-5.62Q57.37-1.54 57.89-0.49L57.89-0.49L57.89-0.49Q58.03-0.25 58.03-0.04L58.03-0.04L58.03-0.04Q58.03 0.49 56.53 0.49L56.53 0.49L56.53 0.49Q53.66 0.49 53.66-0.88L53.66-0.88L53.66-0.88Q53.59-1.44 53.59-2.61L53.59-2.61L53.59-2.61Q53.59-3.78 53.81-6.98L53.81-6.98L53.81-6.98Q54.04-10.19 54.04-11.92L54.04-11.92L54.04-11.92Q54.04-13.65 52.31-13.65L52.31-13.65L52.31-13.65Q50.58-13.65 49.67-11.62L49.67-11.62L49.67-11.62Q48.76-9.59 48.76-7.56L48.76-7.56L48.76-7.56Q48.76-3.26 50.93-3.26L50.93-3.26L50.93-3.26Q51.24-3.26 51.54-3.38L51.54-3.38L51.54-3.38Q51.84-3.50 51.91-3.50L51.91-3.50L51.91-3.50Q52.19-3.50 52.34-3.15L52.34-3.15L52.34-3.15Q52.50-2.80 52.50-2.45L52.50-2.45L52.50-2.45Q52.50-1.26 51.56-0.44L51.56-0.44L51.56-0.44Q50.61 0.39 49.25 0.39L49.25 0.39L49.25 0.39Q47.15 0.39 46.08-1.45L46.08-1.45L46.08-1.45Q45.01-3.29 45.01-6.02L45.01-6.02L45.01-6.02Q45.01-9.49 46.66-12.46L46.66-12.46L46.66-12.46Q47.50-13.93 48.93-14.82L48.93-14.82L48.93-14.82Q50.37-15.72 52.19-15.72" fill="#2e186a" stroke="none" stroke-width="none" transform="translate(-57.170013427734375,9.570816705877135)" style="fill: rgb(46, 24, 106);"></path></g><g class="path" style="opacity: 1; transform-origin: 5.41499px -10.6092px; animation: 1.49254s linear -0.537313s infinite normal forwards running fade-13a5067a-f78a-4ebc-b729-a116a4ef3b69;"><path d="M63.21-18.73L63.21-18.73L62.37-18.76L62.37-18.76Q61.43-18.76 61.15-18.31L61.15-18.31L61.15-18.31Q61.08-18.20 60.97-18.20L60.97-18.20L60.97-18.20Q60.52-18.20 60.52-19.76L60.52-19.76L60.52-19.76Q60.52-21.32 60.99-21.74L60.99-21.74L60.99-21.74Q61.46-22.16 62.63-22.16L62.63-22.16L62.63-22.16Q63.81-22.16 64.23-21.75L64.23-21.75L64.23-21.75Q64.65-21.35 64.65-20.41L64.65-20.41L64.65-20.41Q64.65-19.46 64.33-19.09L64.33-19.09L64.33-19.09Q64.02-18.73 63.21-18.73" fill="#2e186a" stroke="none" stroke-width="none" transform="translate(-57.170013427734375,9.570816705877135)" style="fill: rgb(46, 24, 106);"></path></g><g class="path" style="opacity: 1; transform-origin: 4.95499px 2.06082px; animation: 1.49254s linear -0.447761s infinite normal forwards running fade-13a5067a-f78a-4ebc-b729-a116a4ef3b69;"><path d="M60.41-1.05L60.41-1.05L60.80-9.21L60.80-9.21Q60.80-12.11 60.13-13.16L60.13-13.16L60.13-13.16Q59.92-13.51 59.64-13.69L59.64-13.69L59.64-13.69Q59.43-13.76 59.43-13.97L59.43-13.97L59.43-13.97Q59.43-14.60 61.22-15.19L61.22-15.19L61.22-15.19Q63.00-15.79 63.82-15.79L63.82-15.79L63.82-15.79Q64.65-15.79 64.68-15.37L64.68-15.37L64.68-15.37Q64.68-14.67 64.49-11.39L64.49-11.39L64.49-11.39Q64.30-8.12 64.30-4.52L64.30-4.52L64.30-4.52Q64.30-0.91 64.72-0.04L64.72-0.04L64.72-0.04Q64.82 0.14 64.82 0.32L64.82 0.32L64.82 0.32Q64.82 0.77 63.49 0.77L63.49 0.77L63.49 0.77Q62.16 0.77 60.76 0.07L60.76 0.07L60.76 0.07Q60.41-0.11 60.41-1.05" fill="#2e186a" stroke="none" stroke-width="none" transform="translate(-57.170013427734375,9.570816705877135)" style="fill: rgb(46, 24, 106);"></path></g><g class="path" style="opacity: 1; transform-origin: 16.19px 1.92082px; animation: 1.49254s linear -0.358209s infinite normal forwards running fade-13a5067a-f78a-4ebc-b729-a116a4ef3b69;"><path d="M66.95 0.25L66.95 0.25L66.95 0.25Q67.59-3.54 67.59-8.82L67.59-8.82L67.59-8.82Q67.59-14.11 67.27-15.68L67.27-15.68L67.27-15.68Q67.27-16.14 68.32-16.14L68.32-16.14L68.32-16.14Q69.93-16.14 70.45-14.91L70.45-14.91L70.45-14.91Q70.49-14.81 70.63-14.81L70.63-14.81L70.63-14.81Q70.77-14.81 70.84-14.88L70.84-14.88L70.84-14.88Q71.92-16.00 74.20-16.00L74.20-16.00L74.20-16.00Q76.47-16.00 77.81-14.84L77.81-14.84L77.81-14.84Q79.14-13.69 79.14-11.48L79.14-11.48L79.14-11.48Q79.14-10.15 78.91-7.70L78.91-7.70L78.91-7.70Q78.68-5.25 78.68-4.06L78.68-4.06L78.68-4.06Q78.68-1.23 79.63 0.04L79.63 0.04L79.63 0.04Q79.77 0.21 79.77 0.39L79.77 0.39L79.77 0.39Q79.77 0.84 78.78 0.84L78.78 0.84L78.78 0.84Q74.45 0.84 74.45-3.01L74.45-3.01L74.45-3.01Q74.45-4.48 75.11-7.11L75.11-7.11L75.11-7.11Q75.78-9.73 75.78-11.10L75.78-11.10L75.78-11.10Q75.78-13.90 73.47-13.90L73.47-13.90L73.47-13.90Q72.34-13.90 71.77-13.23L71.77-13.23L71.77-13.23Q71.19-12.57 71.12-11.71L71.12-11.71L71.12-11.71Q71.05-10.85 71.05-8.47L71.05-8.47L71.05-8.47Q71.05-4.83 71.30-2.14L71.30-2.14L71.37-1.37L71.37-1.37Q71.37-0.39 70.09 0.16L70.09 0.16L70.09 0.16Q68.81 0.70 67.88 0.70L67.88 0.70L67.88 0.70Q66.95 0.70 66.95 0.25" fill="#2e186a" stroke="none" stroke-width="none" transform="translate(-57.170013427734375,9.570816705877135)" style="fill: rgb(46, 24, 106);"></path></g><g class="path" style="opacity: 1; transform-origin: 29.72px 6.94582px; animation: 1.49254s linear -0.268657s infinite normal forwards running fade-13a5067a-f78a-4ebc-b729-a116a4ef3b69;"><path d="M83.23-14.12L83.23-14.12L83.23-14.12Q84-14.91 85.26-15.45L85.26-15.45L85.26-15.45Q86.52-16.00 87.68-16.00L87.68-16.00L87.68-16.00Q88.83-16.00 90.02-15.47L90.02-15.47L90.02-15.47Q90.16-15.47 90.23-15.54L90.23-15.54L90.23-15.54Q91.14-16.45 92.89-16.45L92.89-16.45L92.89-16.45Q93.31-16.45 93.31-16.07L93.31-16.07L93.31-16.07Q93.31-16.03 93.24-15.75L93.24-15.75L93.24-15.75Q93.17-15.47 93.07-14.93L93.07-14.93L93.07-14.93Q92.96-14.39 92.89-13.62L92.89-13.62L92.89-13.62Q92.65-11.62 92.63-9.21L92.63-9.21L92.63-9.21Q92.61-6.79 92.61-4.38L92.61-4.38L92.72 2.98L92.72 2.98Q92.72 6.51 90.90 8.86L90.90 8.86L90.90 8.86Q90.16 9.80 88.67 10.50L88.67 10.50L88.67 10.50Q87.19 11.20 85.19 11.20L85.19 11.20L85.19 11.20Q84.73 10.92 84.73 10.64L84.73 10.64L84.73 10.64Q84.73 10.36 85.12 10.19L85.12 10.19L85.12 10.19Q87.33 9.17 88.27 5.37L88.27 5.37L88.27 5.37Q89.22 1.58 89.22-6.16L89.22-6.16L89.15-11.06L89.04-13.44L89.04-13.44Q89.04-13.76 88.06-13.90L88.06-13.90L88.06-13.90Q86.80-13.90 85.94-13.07L85.94-13.07L85.94-13.07Q85.09-12.25 84.77-10.92L84.77-10.92L84.77-10.92Q84.21-8.79 84.21-7.23L84.21-7.23L84.21-7.23Q84.21-5.67 84.72-4.48L84.72-4.48L84.72-4.48Q85.23-3.29 86.48-3.29L86.48-3.29L86.48-3.29Q86.84-3.29 87.13-3.43L87.13-3.43L87.13-3.43Q87.43-3.57 87.54-3.57L87.54-3.57L87.54-3.57Q87.89-3.57 87.89-2.87L87.89-2.87L87.89-2.87Q87.89-2.17 87.78-1.73L87.78-1.73L87.78-1.73Q87.68-1.30 87.36-0.77L87.36-0.77L87.36-0.77Q86.66 0.39 84.63 0.39L84.63 0.39L84.63 0.39Q82.60 0.39 81.73-1.09L81.73-1.09L81.73-1.09Q80.81-2.59 80.68-3.78L80.68-3.78L80.68-3.78Q80.47-5.57 80.47-6.13L80.47-6.13L80.47-6.13Q80.47-6.69 80.48-7.02L80.48-7.02L80.48-7.02Q80.50-7.35 80.66-8.35L80.66-8.35L80.66-8.35Q80.81-9.35 81.08-10.24L81.08-10.24L81.08-10.24Q81.34-11.13 81.90-12.23L81.90-12.23L81.90-12.23Q82.46-13.34 83.23-14.12" fill="#2e186a" stroke="none" stroke-width="none" transform="translate(-57.170013427734375,9.570816705877135)" style="fill: rgb(46, 24, 106);"></path></g><g class="path" style="opacity: 1; transform-origin: 40.4699px 8.17082px; animation: 1.49254s linear -0.179104s infinite normal forwards running fade-13a5067a-f78a-4ebc-b729-a116a4ef3b69;"><path d="M97.86 0.04L97.86 0.04L97.02 0.07L97.02 0.07Q96.18 0.07 95.90-0.28L95.90-0.28L95.90-0.28Q95.62-0.63 95.60-1.59L95.60-1.59L95.60-1.59Q95.59-2.56 96.04-2.98L96.04-2.98L96.04-2.98Q96.50-3.40 97.58-3.40L97.58-3.40L97.58-3.40Q98.67-3.40 99.17-2.99L99.17-2.99L99.17-2.99Q99.68-2.59 99.68-1.68L99.68-1.68L99.68-1.68Q99.68 0.60 99.23 0.60L99.23 0.60L99.05 0.49L99.05 0.49Q98.81 0.04 97.86 0.04" fill="#2e186a" stroke="none" stroke-width="none" transform="translate(-57.170013427734375,9.570816705877135)" style="fill: rgb(46, 24, 106);"></path></g><g class="path" style="opacity: 1; transform-origin: 48.0999px 8.17082px; animation: 1.49254s linear -0.0895522s infinite normal forwards running fade-13a5067a-f78a-4ebc-b729-a116a4ef3b69;"><path d="M105.49 0.04L105.49 0.04L104.65 0.07L104.65 0.07Q103.81 0.07 103.53-0.28L103.53-0.28L103.53-0.28Q103.25-0.63 103.23-1.59L103.23-1.59L103.23-1.59Q103.22-2.56 103.67-2.98L103.67-2.98L103.67-2.98Q104.13-3.40 105.21-3.40L105.21-3.40L105.21-3.40Q106.30-3.40 106.80-2.99L106.80-2.99L106.80-2.99Q107.31-2.59 107.31-1.68L107.31-1.68L107.31-1.68Q107.31 0.60 106.86 0.60L106.86 0.60L106.68 0.49L106.68 0.49Q106.44 0.04 105.49 0.04" fill="#2e186a" stroke="none" stroke-width="none" transform="translate(-57.170013427734375,9.570816705877135)" style="fill: rgb(46, 24, 106);"></path></g><g class="path" style="opacity: 1; transform-origin: 55.7296px 8.17082px; animation: 1.49254s linear 0s infinite normal forwards running fade-13a5067a-f78a-4ebc-b729-a116a4ef3b69;"><path d="M113.12 0.04L113.12 0.04L112.28 0.07L112.28 0.07Q111.44 0.07 111.16-0.28L111.16-0.28L111.16-0.28Q110.88-0.63 110.86-1.59L110.86-1.59L110.86-1.59Q110.84-2.56 111.30-2.98L111.30-2.98L111.30-2.98Q111.75-3.40 112.84-3.40L112.84-3.40L112.84-3.40Q113.92-3.40 114.43-2.99L114.43-2.99L114.43-2.99Q114.94-2.59 114.94-1.68L114.94-1.68L114.94-1.68Q114.94 0.60 114.48 0.60L114.48 0.60L114.31 0.49L114.31 0.49Q114.06 0.04 113.12 0.04" fill="#2e186a" stroke="none" stroke-width="none" transform="translate(-57.170013427734375,9.570816705877135)" style="fill: rgb(46, 24, 106);"></path></g></g>
</g>
</g>
<style id="fade-13a5067a-f78a-4ebc-b729-a116a4ef3b69" data-anikit="">@keyframes fade-13a5067a-f78a-4ebc-b729-a116a4ef3b69
{
  0% {
    animation-timing-function: cubic-bezier(0.2057,0.573,0.3723,0.9184);
    opacity: 1;
  }
  100% {
    opacity: 0;
  }
}</style></svg>