<?xml version="1.0" encoding="utf-8"?>
<svg xmlns="http://www.w3.org/2000/svg" style="margin: auto; background: none; display: block; shape-rendering: auto;" width="251" height="102" preserveAspectRatio="xMidYMid">
<style type="text/css">
  text {
    text-anchor: middle; font-size: 56px; opacity: 0;
  }
</style>
<g style="transform-origin: 125.5px 51px; transform: scale(1.03704);">
<g transform="translate(125.5,51)">
  <g transform="translate(0,0)"><g class="path" style="opacity: 1; transform-origin: -79.535px -5.26576px; animation: 2.17391s linear -1.30435s infinite normal forwards running fade-858ba7b3-8350-4f9f-893e-9918b4930e50;"><path d="M21.65 0L3.77 0L3.77-37.81L7.17-37.81L7.17-3.24L21.65-3.24L21.65 0" fill="#c770f0" stroke="none" stroke-width="none" transform="translate(-92.2449951171875,13.639235562411224)" style="fill: rgb(199, 112, 240);"></path></g><g class="path" style="opacity: 1; transform-origin: -57.255px 0.139235px; animation: 2.17391s linear -1.17391s infinite normal forwards running fade-858ba7b3-8350-4f9f-893e-9918b4930e50;"><path d="M44.01-7.41L44.01-7.41L44.01-7.41Q44.01-5.77 43.39-4.32L43.39-4.32L43.39-4.32Q42.77-2.87 41.69-1.79L41.69-1.79L41.69-1.79Q40.61-0.71 39.16-0.09L39.16-0.09L39.16-0.09Q37.71 0.53 36.07 0.53L36.07 0.53L33.91 0.53L33.91 0.53Q32.27 0.53 30.82-0.09L30.82-0.09L30.82-0.09Q29.37-0.71 28.29-1.79L28.29-1.79L28.29-1.79Q27.21-2.87 26.59-4.32L26.59-4.32L26.59-4.32Q25.97-5.77 25.97-7.41L25.97-7.41L25.97-19.59L25.97-19.59Q25.97-21.23 26.59-22.68L26.59-22.68L26.59-22.68Q27.21-24.13 28.29-25.21L28.29-25.21L28.29-25.21Q29.37-26.29 30.82-26.91L30.82-26.91L30.82-26.91Q32.27-27.53 33.91-27.53L33.91-27.53L36.07-27.53L36.07-27.53Q37.71-27.53 39.16-26.91L39.16-26.91L39.16-26.91Q40.61-26.29 41.69-25.21L41.69-25.21L41.69-25.21Q42.77-24.13 43.39-22.68L43.39-22.68L43.39-22.68Q44.01-21.23 44.01-19.59L44.01-19.59L44.01-7.41zM40.76-7.22L40.76-19.78L40.76-19.78Q40.76-20.75 40.39-21.61L40.39-21.61L40.39-21.61Q40.03-22.46 39.39-23.10L39.39-23.10L39.39-23.10Q38.76-23.73 37.90-24.10L37.90-24.10L37.90-24.10Q37.05-24.47 36.07-24.47L36.07-24.47L33.91-24.47L33.91-24.47Q32.93-24.47 32.08-24.10L32.08-24.10L32.08-24.10Q31.22-23.73 30.59-23.10L30.59-23.10L30.59-23.10Q29.95-22.46 29.58-21.61L29.58-21.61L29.58-21.61Q29.21-20.75 29.21-19.78L29.21-19.78L29.21-7.22L29.21-7.22Q29.21-6.25 29.58-5.39L29.58-5.39L29.58-5.39Q29.95-4.54 30.59-3.90L30.59-3.90L30.59-3.90Q31.22-3.27 32.08-2.90L32.08-2.90L32.08-2.90Q32.93-2.53 33.91-2.53L33.91-2.53L36.07-2.53L36.07-2.53Q37.05-2.53 37.90-2.90L37.90-2.90L37.90-2.90Q38.76-3.27 39.39-3.90L39.39-3.90L39.39-3.90Q40.03-4.54 40.39-5.39L40.39-5.39L40.39-5.39Q40.76-6.25 40.76-7.22L40.76-7.22" fill="#c770f0" stroke="none" stroke-width="none" transform="translate(-92.2449951171875,13.639235562411224)" style="fill: rgb(199, 112, 240);"></path></g><g class="path" style="opacity: 1; transform-origin: -32.735px 0.139235px; animation: 2.17391s linear -1.04348s infinite normal forwards running fade-858ba7b3-8350-4f9f-893e-9918b4930e50;"><path d="M68.53 0L67.45 0L65.65-2.69L65.65-2.69Q64.55-1.24 62.89-0.36L62.89-0.36L62.89-0.36Q61.22 0.53 59.25 0.53L59.25 0.53L58.43 0.53L58.43 0.53Q56.79 0.53 55.34-0.09L55.34-0.09L55.34-0.09Q53.89-0.71 52.81-1.79L52.81-1.79L52.81-1.79Q51.73-2.87 51.11-4.32L51.11-4.32L51.11-4.32Q50.49-5.77 50.49-7.41L50.49-7.41L50.49-7.67L50.49-7.67Q50.49-9.31 51.11-10.76L51.11-10.76L51.11-10.76Q51.73-12.21 52.81-13.29L52.81-13.29L52.81-13.29Q53.89-14.37 55.34-14.99L55.34-14.99L55.34-14.99Q56.79-15.61 58.43-15.61L58.43-15.61L65.29-15.61L65.29-19.78L65.29-19.78Q65.29-20.75 64.92-21.61L64.92-21.61L64.92-21.61Q64.55-22.46 63.91-23.10L63.91-23.10L63.91-23.10Q63.28-23.73 62.42-24.10L62.42-24.10L62.42-24.10Q61.57-24.47 60.59-24.47L60.59-24.47L58.69-24.47L58.69-24.47Q57.72-24.47 56.86-24.10L56.86-24.10L56.86-24.10Q56.00-23.73 55.37-23.10L55.37-23.10L55.37-23.10Q54.74-22.46 54.37-21.61L54.37-21.61L54.37-21.61Q54-20.75 54-19.78L54-19.78L54-18.80L50.76-19.33L50.76-19.59L50.76-19.59Q50.76-21.23 51.38-22.68L51.38-22.68L51.38-22.68Q52.00-24.13 53.08-25.21L53.08-25.21L53.08-25.21Q54.16-26.29 55.61-26.91L55.61-26.91L55.61-26.91Q57.06-27.53 58.69-27.53L58.69-27.53L60.59-27.53L60.59-27.53Q62.23-27.53 63.68-26.91L63.68-26.91L63.68-26.91Q65.13-26.29 66.21-25.21L66.21-25.21L66.21-25.21Q67.29-24.13 67.91-22.68L67.91-22.68L67.91-22.68Q68.53-21.23 68.53-19.59L68.53-19.59L68.53 0zM65.29-7.22L65.29-13.08L58.43-13.08L58.43-13.08Q57.45-13.08 56.60-12.71L56.60-12.71L56.60-12.71Q55.74-12.34 55.11-11.69L55.11-11.69L55.11-11.69Q54.47-11.05 54.11-10.19L54.11-10.19L54.11-10.19Q53.74-9.33 53.74-8.36L53.74-8.36L53.74-7.22L53.74-7.22Q53.74-6.25 54.11-5.39L54.11-5.39L54.11-5.39Q54.47-4.54 55.11-3.90L55.11-3.90L55.11-3.90Q55.74-3.27 56.60-2.90L56.60-2.90L56.60-2.90Q57.45-2.53 58.43-2.53L58.43-2.53L60.59-2.53L60.59-2.53Q61.57-2.53 62.42-2.90L62.42-2.90L62.42-2.90Q63.28-3.27 63.91-3.90L63.91-3.90L63.91-3.90Q64.55-4.54 64.92-5.39L64.92-5.39L64.92-5.39Q65.29-6.25 65.29-7.22L65.29-7.22" fill="#c770f0" stroke="none" stroke-width="none" transform="translate(-92.2449951171875,13.639235562411224)" style="fill: rgb(199, 112, 240);"></path></g><g class="path" style="opacity: 1; transform-origin: -8.21499px -5.00076px; animation: 2.17391s linear -0.913043s infinite normal forwards running fade-858ba7b3-8350-4f9f-893e-9918b4930e50;"><path d="M93.05 0L91.97 0L90.18-2.74L90.18-2.74Q89.07-1.24 87.41-0.36L87.41-0.36L87.41-0.36Q85.75 0.53 83.77 0.53L83.77 0.53L82.95 0.53L82.95 0.53Q81.32 0.53 79.87-0.09L79.87-0.09L79.87-0.09Q78.42-0.71 77.33-1.79L77.33-1.79L77.33-1.79Q76.25-2.87 75.63-4.32L75.63-4.32L75.63-4.32Q75.01-5.77 75.01-7.41L75.01-7.41L75.01-19.59L75.01-19.59Q75.01-21.23 75.63-22.68L75.63-22.68L75.63-22.68Q76.25-24.13 77.33-25.21L77.33-25.21L77.33-25.21Q78.42-26.29 79.87-26.91L79.87-26.91L79.87-26.91Q81.32-27.53 82.95-27.53L82.95-27.53L83.77-27.53L83.77-27.53Q85.59-27.53 87.14-26.79L87.14-26.79L87.14-26.79Q88.70-26.05 89.81-24.73L89.81-24.73L89.81-37.81L93.05-37.81L93.05 0zM89.81-7.22L89.81-19.78L89.81-19.78Q89.81-20.75 89.44-21.61L89.44-21.61L89.44-21.61Q89.07-22.46 88.44-23.10L88.44-23.10L88.44-23.10Q87.80-23.73 86.95-24.10L86.95-24.10L86.95-24.10Q86.09-24.47 85.11-24.47L85.11-24.47L82.95-24.47L82.95-24.47Q81.98-24.47 81.12-24.10L81.12-24.10L81.12-24.10Q80.26-23.73 79.63-23.10L79.63-23.10L79.63-23.10Q79.00-22.46 78.63-21.61L78.63-21.61L78.63-21.61Q78.26-20.75 78.26-19.78L78.26-19.78L78.26-7.22L78.26-7.22Q78.26-6.25 78.63-5.39L78.63-5.39L78.63-5.39Q79.00-4.54 79.63-3.90L79.63-3.90L79.63-3.90Q80.26-3.27 81.12-2.90L81.12-2.90L81.12-2.90Q81.98-2.53 82.95-2.53L82.95-2.53L85.11-2.53L85.11-2.53Q86.09-2.53 86.95-2.90L86.95-2.90L86.95-2.90Q87.80-3.27 88.44-3.90L88.44-3.90L88.44-3.90Q89.07-4.54 89.44-5.39L89.44-5.39L89.44-5.39Q89.81-6.25 89.81-7.22L89.81-7.22" fill="#c770f0" stroke="none" stroke-width="none" transform="translate(-92.2449951171875,13.639235562411224)" style="fill: rgb(199, 112, 240);"></path></g><g class="path" style="opacity: 1; transform-origin: 9.99001px -22.0108px; animation: 2.17391s linear -0.782609s infinite normal forwards running fade-858ba7b3-8350-4f9f-893e-9918b4930e50;"><path d="M104.12-33.49L100.35-33.49L100.35-37.81L104.12-37.81L104.12-33.49" fill="#c770f0" stroke="none" stroke-width="none" transform="translate(-92.2449951171875,13.639235562411224)" style="fill: rgb(199, 112, 240);"></path></g><g class="path" style="opacity: 1; transform-origin: 9.99501px 0.139235px; animation: 2.17391s linear -0.652174s infinite normal forwards running fade-858ba7b3-8350-4f9f-893e-9918b4930e50;"><path d="M103.86 0L100.62 0L100.62-27L103.86-27L103.86 0" fill="#c770f0" stroke="none" stroke-width="none" transform="translate(-92.2449951171875,13.639235562411224)" style="fill: rgb(199, 112, 240);"></path></g><g class="path" style="opacity: 1; transform-origin: 28.2px -0.125765px; animation: 2.17391s linear -0.521739s infinite normal forwards running fade-858ba7b3-8350-4f9f-893e-9918b4930e50;"><path d="M129.46 0L126.22 0L126.22-19.78L126.22-19.78Q126.22-20.75 125.85-21.61L125.85-21.61L125.85-21.61Q125.48-22.46 124.85-23.10L124.85-23.10L124.85-23.10Q124.22-23.73 123.36-24.10L123.36-24.10L123.36-24.10Q122.50-24.47 121.53-24.47L121.53-24.47L119.36-24.47L119.36-24.47Q118.39-24.47 117.53-24.10L117.53-24.10L117.53-24.10Q116.67-23.73 116.04-23.10L116.04-23.10L116.04-23.10Q115.41-22.46 115.04-21.61L115.04-21.61L115.04-21.61Q114.67-20.75 114.67-19.78L114.67-19.78L114.67 0L111.43 0L111.43-27L112.51-27L114.28-24.26L114.28-24.26Q115.38-25.76 117.06-26.64L117.06-26.64L117.06-26.64Q118.73-27.53 120.71-27.53L120.71-27.53L121.53-27.53L121.53-27.53Q123.16-27.53 124.61-26.91L124.61-26.91L124.61-26.91Q126.06-26.29 127.14-25.21L127.14-25.21L127.14-25.21Q128.22-24.13 128.84-22.68L128.84-22.68L128.84-22.68Q129.46-21.23 129.46-19.59L129.46-19.59L129.46 0" fill="#c770f0" stroke="none" stroke-width="none" transform="translate(-92.2449951171875,13.639235562411224)" style="fill: rgb(199, 112, 240);"></path></g><g class="path" style="opacity: 1; transform-origin: 52.985px 5.27923px; animation: 2.17391s linear -0.391304s infinite normal forwards running fade-858ba7b3-8350-4f9f-893e-9918b4930e50;"><path d="M154.25 3.40L154.25 3.40L154.25 3.40Q154.25 5.04 153.63 6.41L153.63 6.41L153.63 6.41Q153.01 7.78 151.93 8.75L151.93 8.75L151.93 8.75Q150.85 9.73 149.40 10.27L149.40 10.27L149.40 10.27Q147.95 10.81 146.31 10.81L146.31 10.81L144.97 10.81L144.97 10.81Q143.33 10.81 141.88 10.27L141.88 10.27L141.88 10.27Q140.43 9.73 139.35 8.75L139.35 8.75L139.35 8.75Q138.27 7.78 137.65 6.41L137.65 6.41L137.65 6.41Q137.03 5.04 137.03 3.40L137.03 3.40L137.03 3.30L137.03 3.30Q137.03 1.71 137.61 0.40L137.61 0.40L137.61 0.40Q138.19-0.92 139.19-1.90L139.19-1.90L139.19-1.90Q137.93-2.66 137.18-3.97L137.18-3.97L137.18-3.97Q136.42-5.27 136.42-6.86L136.42-6.86L136.42-6.86Q136.42-8.28 137.03-9.51L137.03-9.51L137.03-9.51Q137.64-10.73 138.69-11.50L138.69-11.50L138.69-11.50Q137.43-12.60 136.69-14.16L136.69-14.16L136.69-14.16Q135.95-15.71 135.95-17.56L135.95-17.56L135.95-19.59L135.95-19.59Q135.95-21.23 136.57-22.68L136.57-22.68L136.57-22.68Q137.19-24.13 138.27-25.21L138.27-25.21L138.27-25.21Q139.35-26.29 140.80-26.91L140.80-26.91L140.80-26.91Q142.25-27.53 143.89-27.53L143.89-27.53L145.23-27.53L145.23-27.53Q147.21-27.53 148.88-26.64L148.88-26.64L148.88-26.64Q150.56-25.76 151.66-24.26L151.66-24.26L153.43-27L154.51-27L154.51-17.56L154.51-17.56Q154.51-15.93 153.89-14.48L153.89-14.48L153.89-14.48Q153.27-13.03 152.19-11.94L152.19-11.94L152.19-11.94Q151.11-10.86 149.66-10.24L149.66-10.24L149.66-10.24Q148.21-9.62 146.58-9.62L146.58-9.62L141.88-9.62L141.88-9.62Q141.33-9.62 140.83-9.40L140.83-9.40L140.83-9.40Q140.33-9.18 139.94-8.81L139.94-8.81L139.94-8.81Q139.56-8.44 139.35-7.92L139.35-7.92L139.35-7.92Q139.14-7.41 139.14-6.86L139.14-6.86L139.14-6.86Q139.14-6.30 139.35-5.80L139.35-5.80L139.35-5.80Q139.56-5.30 139.94-4.92L139.94-4.92L139.94-4.92Q140.33-4.54 140.83-4.32L140.83-4.32L140.83-4.32Q141.33-4.11 141.88-4.11L141.88-4.11L146.31-4.11L146.31-4.11Q147.95-4.11 149.40-3.57L149.40-3.57L149.40-3.57Q150.85-3.03 151.93-2.06L151.93-2.06L151.93-2.06Q153.01-1.08 153.63 0.29L153.63 0.29L153.63 0.29Q154.25 1.66 154.25 3.30L154.25 3.30L154.25 3.40zM151.29-17.38L151.29-19.78L151.29-19.78Q151.29-20.75 150.93-21.61L150.93-21.61L150.93-21.61Q150.56-22.46 149.91-23.10L149.91-23.10L149.91-23.10Q149.26-23.73 148.41-24.10L148.41-24.10L148.41-24.10Q147.55-24.47 146.58-24.47L146.58-24.47L143.89-24.47L143.89-24.47Q142.91-24.47 142.05-24.10L142.05-24.10L142.05-24.10Q141.20-23.73 140.56-23.10L140.56-23.10L140.56-23.10Q139.93-22.46 139.56-21.61L139.56-21.61L139.56-21.61Q139.19-20.75 139.19-19.78L139.19-19.78L139.19-17.38L139.19-17.38Q139.19-16.40 139.56-15.54L139.56-15.54L139.56-15.54Q139.93-14.69 140.56-14.05L140.56-14.05L140.56-14.05Q141.20-13.42 142.05-13.05L142.05-13.05L142.05-13.05Q142.91-12.68 143.89-12.68L143.89-12.68L146.58-12.68L146.58-12.68Q147.55-12.68 148.41-13.05L148.41-13.05L148.41-13.05Q149.26-13.42 149.91-14.05L149.91-14.05L149.91-14.05Q150.56-14.69 150.93-15.54L150.93-15.54L150.93-15.54Q151.29-16.40 151.29-17.38L151.29-17.38zM151.16 3.56L151.16 3.14L151.16 3.14Q151.16 2.16 150.79 1.38L150.79 1.38L150.79 1.38Q150.42 0.61 149.79 0.08L149.79 0.08L149.79 0.08Q149.16-0.45 148.30-0.74L148.30-0.74L148.30-0.74Q147.45-1.03 146.47-1.03L146.47-1.03L144.81-1.03L144.81-1.03Q143.83-1.03 142.98-0.74L142.98-0.74L142.98-0.74Q142.12-0.45 141.49 0.08L141.49 0.08L141.49 0.08Q140.85 0.61 140.48 1.38L140.48 1.38L140.48 1.38Q140.12 2.16 140.12 3.14L140.12 3.14L140.12 3.56L140.12 3.56Q140.12 4.54 140.48 5.30L140.48 5.30L140.48 5.30Q140.85 6.06 141.49 6.60L141.49 6.60L141.49 6.60Q142.12 7.15 142.98 7.44L142.98 7.44L142.98 7.44Q143.83 7.73 144.81 7.73L144.81 7.73L146.47 7.73L146.47 7.73Q147.45 7.73 148.30 7.44L148.30 7.44L148.30 7.44Q149.16 7.15 149.79 6.60L149.79 6.60L149.79 6.60Q150.42 6.06 150.79 5.30L150.79 5.30L150.79 5.30Q151.16 4.54 151.16 3.56L151.16 3.56" fill="#c770f0" stroke="none" stroke-width="none" transform="translate(-92.2449951171875,13.639235562411224)" style="fill: rgb(199, 112, 240);"></path></g><g class="path" style="opacity: 1; transform-origin: 70.785px 11.6092px; animation: 2.17391s linear -0.26087s infinite normal forwards running fade-858ba7b3-8350-4f9f-893e-9918b4930e50;"><path d="M165.06 0L161.00 0L161.00-4.06L165.06-4.06L165.06 0" fill="#c770f0" stroke="none" stroke-width="none" transform="translate(-92.2449951171875,13.639235562411224)" style="fill: rgb(199, 112, 240);"></path></g><g class="path" style="opacity: 1; transform-origin: 82.385px 11.6092px; animation: 2.17391s linear -0.130435s infinite normal forwards running fade-858ba7b3-8350-4f9f-893e-9918b4930e50;"><path d="M176.66 0L172.60 0L172.60-4.06L176.66-4.06L176.66 0" fill="#c770f0" stroke="none" stroke-width="none" transform="translate(-92.2449951171875,13.639235562411224)" style="fill: rgb(199, 112, 240);"></path></g><g class="path" style="opacity: 1; transform-origin: 93.985px 11.6092px; animation: 2.17391s linear 0s infinite normal forwards running fade-858ba7b3-8350-4f9f-893e-9918b4930e50;"><path d="M188.26 0L184.20 0L184.20-4.06L188.26-4.06L188.26 0" fill="#c770f0" stroke="none" stroke-width="none" transform="translate(-92.2449951171875,13.639235562411224)" style="fill: rgb(199, 112, 240);"></path></g></g>
</g>
</g>
<style id="fade-858ba7b3-8350-4f9f-893e-9918b4930e50" data-anikit="">@keyframes fade-858ba7b3-8350-4f9f-893e-9918b4930e50
{
  0% {
    animation-timing-function: cubic-bezier(0.2057,0.573,0.3723,0.9184);
    opacity: 1;
  }
  100% {
    opacity: 0;
  }
}</style></svg>